<?xml version="1.0" standalone="no"?><!DOCTYPE svg PUBLIC "-//W3C//DTD SVG 1.1//EN" "http://www.w3.org/Graphics/SVG/1.1/DTD/svg11.dtd"><svg t="1764959868257" class="icon" viewBox="0 0 1024 1024" version="1.1" xmlns="http://www.w3.org/2000/svg" p-id="7504" xmlns:xlink="http://www.w3.org/1999/xlink" width="200" height="200"><path d="M505.6 300.8c-19.2 0-38.4-19.2-38.4-38.4s19.2-38.4 38.4-38.4h147.2V102.4c0-19.2 19.2-38.4 38.4-38.4 12.8 0 19.2 6.4 25.6 12.8l281.6 281.6c12.8 12.8 12.8 38.4 0 51.2l-281.6 281.6c-12.8 12.8-38.4 12.8-51.2 0-6.4-6.4-12.8-19.2-12.8-25.6V550.4H352c-19.2 0-38.4-19.2-38.4-38.4V441.6l-192 192 192 192v-70.4c0-19.2 19.2-38.4 38.4-38.4h185.6c19.2 0 38.4 19.2 38.4 38.4s-19.2 38.4-38.4 38.4H390.4v121.6c0 12.8-6.4 19.2-12.8 25.6-12.8 12.8-38.4 12.8-51.2 0L38.4 659.2c-12.8-12.8-12.8-38.4 0-51.2L326.4 320c6.4 0 12.8-6.4 25.6-6.4 19.2 0 38.4 19.2 38.4 38.4v121.6h300.8c19.2 0 38.4 19.2 38.4 38.4v70.4l192-192-192-192v70.4c0 19.2-19.2 38.4-38.4 38.4H505.6v-6.4z" fill="" p-id="7505"></path></svg>